<?xml version="1.0" encoding="utf-8"?>
<svg viewBox="600 -400 2600 2600" xmlns="http://www.w3.org/2000/svg">
  <path id="path0" d="M 2800.001 -200 L 2800.001 0 L 2999.999 0 L 3000 399.999 L 3200 400 L 3200 1399.999 L 2999.999 1399.999 L 2999.999 1800 L 2800.001 1800 L 2800.001 2000 L 2399.999 2000 L 2399.999 2200 L 1400 2200 L 1400 2000 L 999.999 2000 L 999.999 1800 L 800.001 1800 L 800.001 1399.999 L 600 1399.999 L 600 400.001 L 800.001 400.001 L 800.001 0 L 999.999 0 L 999.999 -200 L 1400 -200 L 1400 -400 L 2399.999 -400 L 2399.999 -200 L 2800.001 -200 Z M 1500 2000 L 1500 2200 L 2300 2200 L 2300 1500 L 2200 1500 L 2200 1400 L 2600 1400 L 2600 1300 L 2700 1300 L 2700 1200 L 2800 1200 L 2800 1000 L 2900 1000 L 2900 600 L 2800 600 L 2793.529 397.999 L 2693.529 397.999 L 2700 100 L 2600 100 L 2600 0 L 2500 0 L 2500 100 L 2400 100 L 2400 200 L 2300 200 L 2300 300 L 1500 300 L 1500 200 L 1400 200 L 1400 100 L 1300 100 L 1300 0 L 1200 0 L 1200 100 L 1100 100 L 1095.773 400 L 995.773 400 L 997.313 591.406 L 900 600 L 900 1000 L 1000 1000 L 1000 1200 L 1100 1200 L 1100 1300 L 1200 1300 L 1198.633 1400 L 1600 1400 L 1600 1500 L 1500 1500 L 1500 1700 L 1200 1700 L 1200 1500 L 1100 1500 L 1100 1400 L 900 1400 L 900 1500 L 1000 1500 L 1000 1600 L 1100 1600 L 1100 1800 L 1300 1800 L 1300 1900 L 1500 1900 L 1500 2000 Z" style="paint-order: fill;"/>
</svg>