<?xml version="1.0" encoding="utf-8"?>
<svg viewBox="-2100 -400 2600 2600" xmlns="http://www.w3.org/2000/svg">
  <path id="path-1" d="M 100.001 -200 L 100.001 0 L 299.999 0 L 300 399.999 L 500 400 L 500 1399.999 L 299.999 1399.999 L 299.999 1800 L 100.001 1800 L 100.001 2000 L -300.001 2000 L -300.001 2200 L -1300 2200 L -1300 2000 L -1700.001 2000 L -1700.001 1800 L -1899.999 1800 L -1899.999 1399.999 L -2100 1399.999 L -2100 400.001 L -1899.999 400.001 L -1899.999 0 L -1700.001 0 L -1700.001 -200 L -1300 -200 L -1300 -400 L -300.001 -400 L -300.001 -200 L 100.001 -200 Z M -1500 1600 L -1500 1700 L -100 1700 L -100 1600 L 0 1600 L 0 200 L -100 200 L -97.756 102.001 L -1500 100 L -1500 200 L -1600 200 L -1600 1600 L -1500 1600 Z M -550.437 452.867 L -550.437 552.867 L -450.437 552.867 L -450.437 652.867 L -350.437 652.867 L -350.437 1152.867 L -450.437 1152.867 L -450.437 1252.867 L -550.437 1252.867 L -550.437 1352.867 L -1050.437 1352.867 L -1050.437 1252.867 L -1150.437 1252.867 L -1150.437 1152.867 L -1250.437 1152.867 L -1250.437 652.867 L -1150.437 652.867 L -1150.437 552.867 L -1050.437 552.867 L -1050.437 452.867 L -550.437 452.867 Z M -200 300 L -200 500 L -400 500 L -400 300 L -200 300 Z M -1100 1100 L -1000 1100 L -1000 1200 L -600 1200 L -600 1100 L -500 1100 L -500 700 L -600 700 L -600 600 L -1000 600 L -1000 700 L -1100 700 L -1100 1100 Z" style="paint-order: fill;"/>
</svg>