<?xml version="1.0" encoding="utf-8"?>
<svg viewBox="600 -700 2600 2500" xmlns="http://www.w3.org/2000/svg">
  <path id="path0" d="M 2800 -500 L 2800 -300 L 3000 -300 L 3000 100 L 3200 100 L 3200 1000 L 3000 1000 L 3000 1400 L 2800 1400 L 2800 1600 L 2400 1600 L 2400 1800 L 1400 1800 L 1400 1600 L 1000 1600 L 1000 1400 L 800 1400 L 800 1000 L 600 1000 L 600 100 L 800 100 L 800 -300 L 1000 -300 L 1000 -500 L 1400 -500 L 1400 -700 L 2400 -700 L 2400 -500 L 2800 -500 Z M 1353.349 -100 L 1353.349 152.417 L 1600.482 152.417 L 1600.482 -100 L 1353.349 -100 Z M 1353.349 252.417 L 1349.965 1252.417 L 1597.098 1252.417 L 1600.482 252.417 L 1353.349 252.417 Z M 1700.182 1249.333 L 1902.833 1250.505 L 1906.217 650.505 L 2000.482 652.417 L 2000.482 552.417 L 2300.482 552.417 L 2300.482 652.417 L 2400.482 652.417 L 2397.098 1252.417 L 2597.098 1252.417 C 2597.119 1252.417 2600.482 452.417 2600.482 452.417 L 2500.482 452.417 L 2500.482 352.417 L 2400.482 352.417 L 2400.482 252.417 L 2003.599 254.501 L 2003.599 354.501 L 1900.482 352.417 L 1900.482 252.417 L 1703.566 249.333 L 1700.182 1249.333 Z" style="paint-order: fill;"/>
</svg>