<?xml version="1.0" encoding="utf-8"?>
<svg viewBox="-1200 -1000 2600 2500" xmlns="http://www.w3.org/2000/svg">
  <path id="path0" d="M 1000 -800 L 1000 -600 L 1200 -600 L 1200 -200 L 1400 -200 L 1400 700 L 1200 700 L 1200 1100 L 1000 1100 L 1000 1300 L 600 1300 L 600 1500 L -400 1500 L -400 1300 L -800 1300 L -800 1100 L -1000 1100 L -1000 700 L -1200 700 L -1200 -200 L -1000 -200 L -1000 -600 L -800 -600 L -800 -800 L -400 -800 L -400 -1000 L 600 -1000 L 600 -800 L 1000 -800 Z M -600 -600 L -600 700 L -200 700 L -200 1100 L 800 1100 L 800 -600 L -600 -600 Z M -300 800 L -600 792.871 L -300 1098.507 L -300 800 Z M 0 -400 L 1.563 -500 L 201.492 -500 L 200 -400 L 300 -400 L 300 -200 L 200 -200 L 200 -100 L 297.656 -100 L 300 0 C 300 -2.409 400 0 400 0 C 400 0 400 98.164 400 100 L -200 100 L -200 0 L -100 0 L -100 -100 L 0 -100 L 0 -200 L -100 -200 L -100 -400 L 0 -400 Z M 600 200 L 600 300 L -400 300 L -400 200 L 600 200 Z M -400 400 L 600 400 L 600 500 L -400 500 L -400 400 Z M 0 600 L 600 600 L 600 700 L 0 700 L 0 600 Z M 0 800 L 600 800 C 600 800 600 896.71 600 900 C 600 903.29 0 900 0 900 L 0 800 Z" style="paint-order: fill;"/>
</svg>