<?xml version="1.0" encoding="utf-8"?>
<svg viewBox="-700 -1800 2200 4500" xmlns="http://www.w3.org/2000/svg">
  <defs>
    <linearGradient gradientUnits="userSpaceOnUse" x1="88.651" y1="126.037" x2="88.651" y2="623.273" id="gradient-7" gradientTransform="matrix(0.105205, -0.994448, 0.569364, 0, 129.745591, -669.22522)">
      <stop offset="0" style="stop-color: rgb(77, 77, 77);"/>
      <stop offset="1" style=""/>
    </linearGradient>
    <radialGradient gradientUnits="userSpaceOnUse" cx="-1764.4" cy="2615.068" r="107.463" id="gradient-2" gradientTransform="matrix(-0.056661, 3.663856, -1.710473, -0.026451, 3306.231807, 9507.909243)">
      <stop offset="0" style="stop-color: rgb(91, 140, 255);"/>
      <stop offset="1" style="stop-color: rgb(255, 47, 0);"/>
    </radialGradient>
    <radialGradient gradientUnits="userSpaceOnUse" cx="-1850.036" cy="2455.375" r="86.136" id="gradient-0" gradientTransform="matrix(0.010248, 2.540677, -0.581741, 0.002347, 379.873287, 7568.815005)">
      <stop offset="0" style="stop-color: rgb(255, 255, 255);"/>
      <stop offset="1" style="stop-color: rgb(91, 140, 255);"/>
    </radialGradient>
    <radialGradient gradientUnits="userSpaceOnUse" cx="-1858.84" cy="2603.281" r="107.463" id="gradient-4" gradientTransform="matrix(-0.01575, 3.697392, -1.78712, -0.007613, 3806.138057, 9866.910219)">
      <stop offset="0" style="stop-color: rgb(91, 140, 255);"/>
      <stop offset="1" style="stop-color: rgb(255, 47, 0);"/>
    </radialGradient>
    <radialGradient gradientUnits="userSpaceOnUse" cx="-1801.202" cy="2429.699" r="86.136" id="gradient-1" gradientTransform="matrix(0.010248, 2.540677, -0.581741, 0.002347, 614.952083, 7444.802309)">
      <stop offset="0" style="stop-color: rgb(255, 255, 255);"/>
      <stop offset="1" style="stop-color: rgb(91, 140, 255);"/>
    </radialGradient>
    <radialGradient gradientUnits="userSpaceOnUse" cx="-1884.286" cy="2570.023" r="107.463" id="gradient-5" gradientTransform="matrix(-0.051774, 2.958905, -1.786863, -0.031266, 3926.147823, 8682.923891)">
      <stop offset="0" style="stop-color: rgb(91, 140, 255);"/>
      <stop offset="1" style="stop-color: rgb(255, 47, 0);"/>
    </radialGradient>
    <radialGradient gradientUnits="userSpaceOnUse" cx="-1778.429" cy="2034.98" r="86.136" id="gradient-3" gradientTransform="matrix(0.010248, 2.540677, -0.581741, 0.002347, 635.907466, 7387.869204)">
      <stop offset="0" style="stop-color: rgb(255, 255, 255);"/>
      <stop offset="1" style="stop-color: rgb(91, 140, 255);"/>
    </radialGradient>
  </defs>
  <circle style="fill: url(#gradient-7); paint-order: fill;" cx="448.618" cy="-751.382" r="248.618"/>
  <path style="fill: rgb(202, 202, 202); stroke: rgb(45, 45, 45); paint-order: stroke; stroke-linecap: round; stroke-width: 0px;" d="M -614.191 -525.768 L -414.191 -76.02 C -414.191 -76.02 -414.191 887.308 -414.191 1374.232 C -414.191 1674.232 -14.191 2374.232 -14.191 2374.232 L -14.191 2874.232 L -414.191 2574.232 L -414.191 2674.232 L -514.191 2674.232 L -462.936 2774.232 L -666.954 2774.232 L -614.191 2674.232 L -763.674 2674.232 L -712.419 2774.232 L -916.437 2774.232 L -863.674 2674.232 L -1014.191 2674.232 L -962.936 2774.232 L -1166.954 2774.232 L -1114.191 2674.232 L -1214.191 2674.232 L -1214.191 2574.232 L -1614.191 2874.232 L -1614.191 2374.232 C -1614.191 2374.232 -1214.191 1674.232 -1214.191 1374.232 C -1214.191 1174.232 -1214.191 -76.02 -1214.191 -76.02 L -1014.191 -525.768 C -1014.191 -525.768 -874.036 -825.768 -814.191 -825.768 C -752.787 -825.768 -614.191 -525.768 -614.191 -525.768 Z M -814.191 -25.768 C -910.341 -27.015 -1013.252 79.956 -1014.191 174.232 C -1015.129 268.468 -908.464 372.975 -814.191 374.232 C -722.335 375.457 -614.191 268.513 -614.191 174.232 C -614.191 79.951 -717.438 -24.514 -814.191 -25.768 Z" transform="matrix(1, 0, 0, 1, 1217.557521, -952.783162)">
    <title>bodyouter</title>
  </path>
  <path style="stroke: rgb(0, 0, 0); fill: rgb(42, 42, 42); visibility: hidden;" d="M -814.191 -41.366 C -712.74 -41.302 -554.133 72.781 -554.168 174.232 C -554.203 275.613 -712.81 389.47 -814.191 389.534 C -915.699 389.598 -1029.517 275.74 -1029.552 174.232 C -1029.587 72.654 -915.769 -41.43 -814.191 -41.366 Z M -1013.539 173.58 C -1016.485 261.75 -908.163 372.927 -814.191 372.927 C -720.218 372.927 -614.845 267.553 -614.845 173.58 C -614.845 79.607 -720.218 -25.768 -814.191 -25.768 C -908.165 -25.768 -1010.52 83.256 -1013.539 173.58 Z" transform="matrix(1, 0, 0, 1, 1217.557521, -952.783162)">
    <title>windowhole</title>
  </path>
  <path style="stroke-miterlimit: 5; stroke: rgba(255, 255, 255, 0); fill: url(#gradient-2);" d="M -1116.962 2874.232 C -1216.962 2874.232 -1182.352 3574.232 -1064.932 3574.232 C -961.888 3574.232 -916.962 2874.232 -1016.962 2874.232" transform="matrix(1, 0, 0, 1, 1217.557521, -952.783162)">
    <title>redflameleft</title>
  </path>
  <path style="paint-order: fill; stroke: rgba(255, 255, 255, 0); fill: url(#gradient-0);" d="M -1116.963 2874.232 C -1116.963 2874.232 -1116.962 3274.232 -1068.451 3274.232 C -1016.962 3274.232 -1016.963 2874.232 -1016.963 2874.232" transform="matrix(1, 0, 0, 1, 1217.557521, -952.783162)">
    <title>blueflameleft</title>
  </path>
  <path style="stroke-miterlimit: 5; stroke: rgba(255, 255, 255, 0); fill: url(#gradient-4);" d="M -864.301 2874.232 C -964.301 2874.232 -929.691 3574.232 -812.271 3574.232 C -709.227 3574.232 -664.301 2874.232 -764.301 2874.232" transform="matrix(1, 0, 0, 1, 1217.557521, -952.783162)">
    <title>redflamemid</title>
  </path>
  <path style="paint-order: fill; stroke: rgba(255, 255, 255, 0); fill: url(#gradient-1);" d="M -864.967 2874.232 C -864.967 2874.232 -864.966 3274.232 -816.455 3274.232 C -764.966 3274.232 -764.967 2874.232 -764.967 2874.232" transform="matrix(1, 0, 0, 1, 1217.557521, -952.783162)">
    <title>blueflamemid</title>
  </path>
  <path style="stroke-miterlimit: 5; stroke: rgba(255, 255, 255, 0); fill: url(#gradient-5);" d="M -616.962 2874.232 C -716.962 2874.232 -682.352 3574.232 -564.932 3574.232 C -461.888 3574.232 -416.962 2874.232 -516.962 2874.232" transform="matrix(1, 0, 0, 1, 1217.557521, -952.783162)">
    <title>redflamemid</title>
  </path>
  <path style="paint-order: fill; stroke: rgba(255, 255, 255, 0); fill: url(#gradient-3);" d="M -616.962 2874.232 C -616.962 2874.232 -616.961 3274.232 -568.45 3274.232 C -516.961 3274.232 -516.962 2874.232 -516.962 2874.232" transform="matrix(1, 0, 0, 1, 1217.557521, -952.783162)">
    <title>blueflameright</title>
  </path>
  <path style="fill: rgb(202, 202, 202); stroke: rgb(45, 45, 45); paint-order: stroke; stroke-linecap: round; stroke-width: 0px;" d="M -614.191 -525.768 L -414.191 -76.02 C -414.191 -76.02 -414.191 887.308 -414.191 1374.232 C -414.191 1674.232 -414.191 2574.232 -414.191 2574.232 L -1214.191 2574.232 C -1214.191 2574.232 -1214.191 1674.232 -1214.191 1374.232 C -1214.191 1174.232 -1214.191 -76.02 -1214.191 -76.02 C -1180.115 -236.513 -1014.191 -525.768 -1014.191 -525.768 C -1014.191 -525.768 -874.036 -825.768 -814.191 -825.768 C -752.787 -825.768 -614.191 -525.768 -614.191 -525.768 Z M -814.191 -25.768 C -910.341 -27.015 -1013.252 79.956 -1014.191 174.232 C -1015.129 268.468 -908.464 372.975 -814.191 374.232 C -722.335 375.457 -614.191 268.513 -614.191 174.232 C -614.191 79.951 -717.438 -24.514 -814.191 -25.768 Z" transform="matrix(1, 0, 0, 1, 1217.557521, -952.783162)">
    <title>bodyleft</title>
  </path>
  <path style="stroke: rgb(45, 45, 45); paint-order: stroke; stroke-linecap: round; stroke-width: 0px; fill: rgb(182, 182, 182);" d="M -614.191 -525.768 C -614.191 -525.768 -448.267 -236.513 -414.191 -76.02 C -414.191 -76.02 -414.191 887.308 -414.191 1374.232 C -414.191 1674.232 -414.191 2674.232 -414.191 2674.232 L -814.191 2674.232 L -814.191 -825.768 C -752.787 -825.768 -614.191 -525.768 -614.191 -525.768 Z M -814.191 -25.768 L -814.191 374.232 C -814.191 374.232 -614.191 295.06 -614.191 174.232 C -614.191 53.404 -717.438 -24.514 -814.191 -25.768 Z" transform="matrix(1, 0, 0, 1, 1217.557521, -952.783162)">
    <title>bodyright</title>
  </path>
  <path style="stroke: rgb(45, 45, 45); paint-order: stroke; stroke-linecap: round; fill: rgb(182, 182, 182); stroke-width: 0px;" d="M -414.191 2574.232 L -414.191 1374.232 C -414.191 1674.232 -14.191 2374.232 -14.191 2374.232 L -14.191 2874.232 L -414.191 2574.232 Z" transform="matrix(1, 0, 0, 1, 1217.557521, -952.783162)">
    <title>rightwing</title>
  </path>
  <path style="stroke: rgb(45, 45, 45); paint-order: stroke; stroke-linecap: round; fill: rgb(45, 45, 45); stroke-width: 0px;" d="M -1488.149 2137.869 L -1487.9 2779.506 L -1514.191 2799.233 L -1514.191 2188.783 L -1488.149 2137.869 Z" transform="matrix(1, 0, 0, 1, 1217.557521, -952.783162)">
    <title>leftstripe</title>
  </path>
  <path style="stroke: rgb(45, 45, 45); paint-order: stroke; stroke-linecap: round; fill: rgb(26, 26, 26); stroke-width: 0px;" d="M -113.966 2806.876 L -114.157 2164.392 L -140.482 2144.458 L -140.482 2755.204 L -113.966 2806.876 Z" transform="matrix(-1, 0, 0, -1, 962.884481, 3991.093835)">
    <title>rightstripe</title>
  </path>
  <path style="paint-order: stroke; fill: rgb(45, 45, 45); stroke: rgb(45, 45, 45); stroke-width: 0px;" d="M -1214.191 2574.232 L -414.191 2574.232 L -414.191 2774.232 L -514.191 2774.232 L -462.936 2874.232 L -666.954 2874.232 L -614.191 2774.232 L -763.674 2774.232 L -712.419 2874.232 L -916.437 2874.232 L -863.674 2774.232 L -1014.191 2774.232 L -962.936 2874.232 L -1166.954 2874.232 L -1114.191 2774.232 L -1214.191 2774.232 L -1214.191 2574.232 Z" transform="matrix(1, 0, 0, 1, 1217.557521, -952.783162)">
    <title>baseleft</title>
  </path>
  <path style="fill: rgb(26, 26, 26); stroke: rgb(26, 26, 26); paint-order: fill; stroke-width: 0px;" d="M -814.191 2774.232 L -814.191 2574.232 L -414.191 2574.232 L -414.191 2774.232 L -514.191 2774.232 L -462.936 2874.232 L -666.954 2874.232 L -614.191 2774.232 L -763.674 2774.232 L -712.419 2874.232 L -815.225 2874.232 L -814.191 2774.232 Z" transform="matrix(1, 0, 0, 1, 1217.557521, -952.783162)">
    <title>baseright</title>
  </path>
  <path style="paint-order: stroke; stroke-width: 0px; stroke: rgb(45, 45, 45); fill: rgb(45, 45, 45);" d="M -663.698 -625.768 C -660.742 -574.349 -961.703 -571.194 -964.684 -625.768 C -964.684 -625.768 -874.036 -825.768 -814.191 -825.768 C -752.787 -825.768 -663.698 -625.768 -663.698 -625.768 Z" transform="matrix(1, 0, 0, 1, 1217.557521, -952.783162)">
    <title>tipleft</title>
  </path>
  <path style="paint-order: stroke; stroke-width: 0px; stroke: rgb(45, 45, 45); fill: rgb(26, 26, 26);" d="M -663.698 -625.768 C -662.215 -599.974 -737.212 -586.325 -812.706 -586.017 L -814.191 -825.768 C -752.787 -825.768 -663.698 -625.768 -663.698 -625.768 Z" transform="matrix(1, 0, 0, 1, 1217.557521, -952.783162)">
    <title>tipright</title>
  </path>
  <path d="M 726.667 452.222 m -207.039 0 a 207.039 207.039 0 1 0 414.078 0 a 207.039 207.039 0 1 0 -414.078 0 Z M 726.667 452.222 m -183.256 0 a 183.256 183.256 0 0 1 366.512 0 a 183.256 183.256 0 0 1 -366.512 0 Z" style="fill: rgb(45, 45, 45);" transform="matrix(-0.66857, 0.74365, -0.74365, -0.66857, 1219.381007, -1022.701743)">
    <title>windowframeleft</title>
  </path>
  <path style="stroke: rgb(0, 0, 0); fill: rgb(26, 26, 26); stroke-width: 0px;" d="M -814.191 -38.646 L -814.191 -15.602 C -714.191 -13.568 -636.497 74.227 -637.028 174.232 C -637.559 274.232 -735.492 349.411 -814.191 351.323 L -814.191 374.232 C -694.699 374.232 -614.191 268.812 -614.191 174.232 C -614.191 40.142 -703.317 -38.012 -814.191 -38.645" transform="matrix(1, 0, 0, 1, 1217.557521, -952.783162)">
    <title>windowframeright</title>
  </path>
</svg>