<?xml version="1.0" encoding="utf-8"?>
<svg viewBox="379.233 -634.253 2600 2600" width="2600" height="2600" xmlns="http://www.w3.org/2000/svg">
  <path id="path0" d="M 2579.234 -434.253 L 2579.234 -234.253 L 2779.232 -234.253 L 2779.233 165.747 L 2979.233 165.747 L 2979.233 1165.746 L 2779.232 1165.746 L 2779.232 1565.747 L 2579.234 1565.747 L 2579.234 1765.747 L 2179.232 1765.747 L 2179.232 1965.747 L 1179.233 1965.747 L 1179.233 1765.747 L 779.232 1765.747 L 779.232 1565.747 L 579.234 1565.747 L 579.234 1165.746 L 379.233 1165.746 L 379.233 165.748 L 579.234 165.748 L 579.234 -234.253 L 779.232 -234.253 L 779.232 -434.253 L 1179.233 -434.253 L 1179.233 -634.253 L 2179.232 -634.253 L 2179.232 -434.253 L 2579.234 -434.253 Z M 879.233 1265.747 L 879.233 1365.747 L 679.233 1365.747 L 679.233 1465.747 L 1079.233 1465.747 L 1079.233 1565.747 L 1279.233 1565.747 L 1279.233 1665.747 L 1879.233 1665.747 L 1879.233 1565.747 L 2079.233 1565.747 L 2079.233 1465.747 L 2279.233 1465.747 C 2279.233 1465.747 2280.139 1366.653 2279.233 1365.747 L 2379.233 1365.747 L 2379.233 1265.747 L 2480.307 1265.747 L 2480.307 1065.747 L 2580.307 1065.747 L 2580.307 865.747 L 2680.307 865.747 L 2679.233 565.747 L 2779.233 565.747 L 2779.233 465.747 L 2879.233 365.747 L 2779.233 365.747 L 2879.233 265.747 L 2679.233 265.747 L 2679.233 165.747 L 2579.233 165.747 L 2579.233 65.747 L 2479.233 65.747 L 2479.233 -34.253 L 2079.233 -34.253 L 2079.233 65.747 L 1979.233 65.747 L 1979.233 165.747 L 1879.233 165.747 L 1879.233 465.747 L 1579.233 465.747 L 1579.233 365.747 L 1379.233 365.747 L 1379.233 265.747 L 1174.155 265.747 L 1179.233 265.747 L 1179.233 165.747 L 1079.233 165.747 L 1079.233 65.747 L 979.233 65.747 L 979.233 -34.253 L 879.233 -34.253 L 879.233 -134.253 C 879.233 -134.253 778.792 -134.253 779.233 -134.253 L 779.233 -34.253 L 679.233 -34.253 L 679.233 165.747 L 779.233 165.747 L 779.233 365.747 L 879.233 365.747 L 879.233 465.747 L 776.889 465.747 L 779.233 365.747 L 679.233 365.747 L 679.233 665.747 L 781.577 665.747 L 779.233 765.747 L 979.233 765.747 L 979.233 865.747 L 779.233 865.747 L 779.233 765.747 L 679.233 765.747 L 679.233 965.747 L 779.233 965.747 L 779.233 1065.747 L 979.233 1065.747 L 979.233 1165.747 L 1179.233 1165.747 L 1179.233 1265.747 L 879.233 1265.747 Z" style="paint-order: fill;"/>
</svg>