<?xml version="1.0" encoding="utf-8"?>
<svg viewBox="600 -400 2600 2600" xmlns="http://www.w3.org/2000/svg">
  <path id="path0" d="M 2800.001 -200 L 2800.001 0 L 2999.999 0 L 3000 399.999 L 3200 400 L 3200 1399.999 L 2999.999 1399.999 L 2999.999 1800 L 2800.001 1800 L 2800.001 2000 L 2399.999 2000 L 2399.999 2200 L 1400 2200 L 1400 2000 L 999.999 2000 L 999.999 1800 L 800.001 1800 L 800.001 1399.999 L 600 1399.999 L 600 400.001 L 800.001 400.001 L 800.001 0 L 999.999 0 L 999.999 -200 L 1400 -200 L 1400 -400 L 2399.999 -400 L 2399.999 -200 L 2800.001 -200 Z M 1100 1400 L 1100 1500 L 2700 1500 L 2700 1400 L 2800 1400 L 2793.529 397.999 L 2693.529 397.999 L 2695.773 300 L 1095.773 300 L 1095.773 400 L 995.773 400 L 1000 1400 L 1100 1400 Z M 2100 748.643 L 2200 748.643 L 2200 848.643 L 2300 848.643 L 2300 948.643 L 2200 948.643 L 2200 1048.643 L 2100 1048.643 L 2000 1048.643 L 2000 1148.643 L 1800 1148.643 L 1800 1248.643 L 1600 1248.643 L 1600 548.643 L 1800 548.643 L 1800 648.643 L 2000 648.643 L 2000 748.643 L 2100 748.643 Z" style="paint-order: fill;"/>
</svg>